<svg xmlns="http://www.w3.org/2000/svg" xmlns:xlink="http://www.w3.org/1999/xlink" viewBox="0 0 46.96 36"><defs><style>.cls-1{fill:url(#Dégradé_sans_nom_6);}.cls-2{fill:url(#Dégradé_sans_nom_9);}</style><linearGradient id="Dégradé_sans_nom_6" x1="1.74" y1="19.72" x2="32.13" y2="14.29" gradientUnits="userSpaceOnUse"><stop offset="0" stop-color="#7995cc"/><stop offset="0.3" stop-color="#6786c0"/><stop offset="0.9" stop-color="#3a60a1"/><stop offset="1" stop-color="#31599b"/></linearGradient><linearGradient id="Dégradé_sans_nom_9" x1="14.76" y1="25.97" x2="49.07" y2="16.04" gradientUnits="userSpaceOnUse"><stop offset="0" stop-color="#7dd1ad"/><stop offset="0.5" stop-color="#58b78c"/><stop offset="1" stop-color="#2e9968"/></linearGradient></defs><g id="Calque_2" data-name="Calque 2"><g id="Calque_1-2" data-name="Calque 1"><polygon class="cls-1" points="30.87 22.5 22.45 22.5 18 8.91 8.87 36 0 36 13.83 0 22.31 0 30.87 22.5"/><path class="cls-2" d="M47,22c0,15.37-14.15,14-14.15,14h-18V28.42h18S39,27.58,39,21.28a7.2,7.2,0,0,0-2.62-5.79,8.16,8.16,0,0,0-5.23-1.78h-.06L27.3,6.18h5.51S47,6.6,47,22Z"/></g></g></svg>