<svg width="101" height="99" viewBox="0 0 101 99" fill="none" xmlns="http://www.w3.org/2000/svg">
<path d="M41.4521 34.1717C39.895 33.5404 38.2117 33.2879 36.4863 33.33C35.3921 33.33 34.4242 33.33 33.6246 33.3721C32.7829 33.33 32.1938 33.3721 31.8992 33.4142V47.5542C32.4883 47.5963 33.0354 47.6383 33.5404 47.6383H35.7708C37.4121 47.6383 39.0533 47.3858 40.6104 46.8808C41.9571 46.5021 43.1354 45.7025 44.0613 44.6504C44.945 43.5983 45.3658 42.1675 45.3658 40.3158C45.4079 39.0113 45.0713 37.7067 44.3979 36.5704C43.6962 35.4778 42.6643 34.6374 41.4521 34.1717ZM83.1146 0H17.8854C7.99583 0 0 7.99583 0 17.8854V80.5854C0 90.475 7.99583 98.4708 17.8854 98.4708H83.1146C93.0042 98.4708 101 90.475 101 80.5854V17.8854C101 7.99583 93.0042 0 83.1146 0ZM52.0108 49.0271C50.3317 51.3838 47.975 53.1513 45.2396 54.1613C42.3779 55.2133 39.2217 55.5921 35.7708 55.5921C34.7608 55.5921 34.0875 55.5921 33.6667 55.55C33.2458 55.5079 32.6567 55.5079 31.8571 55.5079V69.0125C31.8992 69.307 31.6888 69.5638 31.3942 69.6058H23.23C22.8933 69.6058 22.725 69.4333 22.725 69.0545V25.755C22.725 25.4604 22.8513 25.2921 23.1458 25.2921C23.8613 25.2921 24.5346 25.2921 25.5025 25.25C26.5125 25.2079 27.5646 25.2079 28.7008 25.1658C29.8371 25.1238 31.0575 25.1238 32.3621 25.0817C33.6667 25.0396 34.9292 25.0396 36.1917 25.0396C39.6425 25.0396 42.5042 25.4604 44.8608 26.3442C46.965 27.0596 48.9008 28.2379 50.5 29.795C51.8467 31.1417 52.8987 32.7829 53.5721 34.5925C54.1991 36.36 54.5358 38.1696 54.5358 40.0633C54.54 43.6825 53.6983 46.6704 52.0108 49.0271ZM81.8521 65.3975C80.6738 67.0808 79.0283 68.3812 77.1388 69.1471C75.0767 70.0267 72.5517 70.4854 69.5175 70.4854C67.5858 70.4854 65.6879 70.3213 63.7983 69.9425C62.3254 69.6858 60.8525 69.2271 59.5058 68.5958C59.2113 68.4317 58.9966 68.1371 59.0387 67.8005V60.478C59.0387 60.3559 59.085 60.1834 59.2113 60.0992C59.3333 60.015 59.4638 60.0571 59.59 60.1413C61.2313 61.1092 62.9567 61.7868 64.8083 62.2034C66.4033 62.6242 68.0866 62.8346 69.7742 62.8346C71.3733 62.8346 72.5096 62.62 73.2671 62.2413C73.9404 61.9467 74.4033 61.2313 74.4033 60.4738C74.4033 59.8804 74.0667 59.3375 73.3933 58.7904C72.72 58.2475 71.3355 57.6163 69.2734 56.8083C67.1271 56.0508 65.1534 55.0408 63.2975 53.7825C61.9807 52.8393 60.8874 51.6181 60.095 50.2054C59.4261 48.8739 59.0952 47.3983 59.1313 45.9087C59.1313 44.0991 59.6363 42.3737 60.5663 40.8166C61.6184 39.1333 63.1713 37.7866 64.9809 36.945C66.9546 35.9392 69.4375 35.4762 72.4254 35.4762C74.1508 35.4762 75.9183 35.6025 77.6438 35.855C78.9063 36.0233 80.1267 36.36 81.2629 36.8229C81.427 36.865 81.5996 37.0333 81.6838 37.2017C81.7258 37.37 81.7679 37.5383 81.7679 37.7067V44.5663C81.7679 44.7346 81.6838 44.9029 81.5575 44.9871C81.1788 45.0713 80.9683 45.0713 80.8 44.9871C79.5375 44.3138 78.1908 43.8508 76.76 43.5562C75.2029 43.2196 73.6458 43.0092 72.0467 43.0092C71.205 42.9671 70.3212 43.0933 69.5175 43.3038C68.9746 43.43 68.5075 43.7246 68.2129 44.1454C68.0025 44.4821 67.8762 44.9029 67.8762 45.2817C67.8762 45.6604 68.0445 46.0392 68.3013 46.3758C68.68 46.8387 69.1808 47.2175 69.7321 47.5121C70.6958 48.0171 71.71 48.48 72.7158 48.9008C74.9925 49.6583 77.1808 50.7104 79.2008 51.9729C80.5896 52.8525 81.7258 54.035 82.5212 55.4658C83.1945 56.8041 83.5312 58.2854 83.4891 59.7962C83.5354 61.7783 82.9463 63.752 81.8521 65.3975Z" fill="#F6F6F6"/>
</svg>
